<svg width="27" height="31" viewBox="0 0 27 31" fill="none" xmlns="http://www.w3.org/2000/svg">
<path d="M13.2747 2.26816C14.5179 2.26816 15.7101 2.76202 16.5892 3.64109C17.4683 4.52017 17.9622 5.71246 17.9622 6.95566V7.89316H8.58716V6.95566C8.58716 5.71246 9.08102 4.52017 9.9601 3.64109C10.8392 2.76202 12.0315 2.26816 13.2747 2.26816ZM19.8372 7.89316V6.95566C19.8372 5.21517 19.1458 3.54598 17.915 2.31527C16.6843 1.08456 15.0151 0.393158 13.2747 0.393158C11.5342 0.393158 9.86498 1.08456 8.63427 2.31527C7.40356 3.54598 6.71216 5.21517 6.71216 6.95566V7.89316H0.149658V26.6432C0.149658 27.6377 0.544746 28.5915 1.24801 29.2948C1.95127 29.9981 2.9051 30.3932 3.89966 30.3932H22.6497C23.6442 30.3932 24.598 29.9981 25.3013 29.2948C26.0046 28.5915 26.3997 27.6377 26.3997 26.6432V7.89316H19.8372ZM2.02466 9.76816H24.5247V26.6432C24.5247 27.1404 24.3271 27.6174 23.9755 27.969C23.6239 28.3206 23.1469 28.5182 22.6497 28.5182H3.89966C3.40238 28.5182 2.92546 28.3206 2.57383 27.969C2.2222 27.6174 2.02466 27.1404 2.02466 26.6432V9.76816Z" fill="black"/>
</svg>
