<svg width="31" height="31" viewBox="0 0 31 31" fill="none" xmlns="http://www.w3.org/2000/svg">
<path d="M22.4496 19.787C24.2651 17.3095 25.0783 14.2379 24.7264 11.1867C24.3745 8.13539 22.8835 5.32951 20.5516 3.33037C18.2198 1.33123 15.2191 0.28626 12.1499 0.404522C9.08068 0.522785 6.16929 1.79556 3.9982 3.96821C1.82711 6.14085 0.556419 9.05315 0.440353 12.1224C0.324287 15.1917 1.3714 18.1917 3.37221 20.5221C5.37302 22.8525 8.17997 24.3415 11.2315 24.6912C14.283 25.0409 17.354 24.2256 19.8302 22.4083H19.8283C19.8846 22.4833 19.9446 22.5545 20.0121 22.6239L27.2308 29.8426C27.5824 30.1945 28.0593 30.3922 28.5567 30.3924C29.0541 30.3926 29.5312 30.1951 29.883 29.8436C30.2348 29.492 30.4326 29.015 30.4328 28.5177C30.4329 28.0203 30.2355 27.5432 29.8839 27.1914L22.6652 19.9726C22.5982 19.9048 22.5261 19.8421 22.4496 19.7851V19.787ZM22.9333 12.5795C22.9333 13.9338 22.6666 15.2748 22.1483 16.5259C21.6301 17.7771 20.8705 18.9139 19.9129 19.8715C18.9553 20.8291 17.8184 21.5888 16.5672 22.107C15.3161 22.6253 13.9751 22.892 12.6208 22.892C11.2666 22.892 9.92557 22.6253 8.6744 22.107C7.42323 21.5888 6.28639 20.8291 5.32878 19.8715C4.37118 18.9139 3.61157 17.7771 3.09332 16.5259C2.57506 15.2748 2.30832 13.9338 2.30832 12.5795C2.30832 9.84446 3.39482 7.22143 5.32878 5.28747C7.26275 3.3535 9.88578 2.267 12.6208 2.267C15.3559 2.267 17.9789 3.3535 19.9129 5.28747C21.8468 7.22143 22.9333 9.84446 22.9333 12.5795Z" fill="black"/>
</svg>
