<svg width="24" height="23" viewBox="0 0 24 23" fill="none" xmlns="http://www.w3.org/2000/svg">
<path d="M2.4917 22.6424C2.4917 22.6424 0.616699 22.6424 0.616699 20.7674C0.616699 18.8924 2.4917 13.2674 11.8667 13.2674C21.2417 13.2674 23.1167 18.8924 23.1167 20.7674C23.1167 22.6424 21.2417 22.6424 21.2417 22.6424H2.4917ZM11.8667 11.3924C13.3585 11.3924 14.7893 10.7998 15.8442 9.74487C16.8991 8.68998 17.4917 7.25924 17.4917 5.7674C17.4917 4.27555 16.8991 2.84481 15.8442 1.78992C14.7893 0.735027 13.3585 0.142395 11.8667 0.142395C10.3749 0.142395 8.94412 0.735027 7.88922 1.78992C6.83433 2.84481 6.2417 4.27555 6.2417 5.7674C6.2417 7.25924 6.83433 8.68998 7.88922 9.74487C8.94412 10.7998 10.3749 11.3924 11.8667 11.3924Z" fill="black"/>
</svg>
